<?xml version="1.0" encoding="UTF-8" standalone="no"?>
<!-- Created with Inkscape (http://www.inkscape.org/) -->

<svg
   xmlns:dc="http://purl.org/dc/elements/1.1/"
   xmlns:cc="http://creativecommons.org/ns#"
   xmlns:rdf="http://www.w3.org/1999/02/22-rdf-syntax-ns#"
   xmlns:svg="http://www.w3.org/2000/svg"
   xmlns="http://www.w3.org/2000/svg"
   xmlns:sodipodi="http://sodipodi.sourceforge.net/DTD/sodipodi-0.dtd"
   xmlns:inkscape="http://www.inkscape.org/namespaces/inkscape"
   version="1.0"
   width="1052.3622"
   height="744.09448"
   id="svg3951"
   sodipodi:version="0.32"
   inkscape:version="0.47 r22583"
   sodipodi:docname="grafo.svg"
   inkscape:output_extension="org.inkscape.output.svg.inkscape">
  <metadata
     id="metadata2697">
    <rdf:RDF>
      <cc:Work
         rdf:about="">
        <dc:format>image/svg+xml</dc:format>
        <dc:type
           rdf:resource="http://purl.org/dc/dcmitype/StillImage" />
        <dc:title></dc:title>
      </cc:Work>
    </rdf:RDF>
  </metadata>
  <sodipodi:namedview
     inkscape:window-height="1031"
     inkscape:window-width="1660"
     inkscape:pageshadow="2"
     inkscape:pageopacity="0.0"
     guidetolerance="10.0"
     gridtolerance="10.0"
     objecttolerance="10.0"
     borderopacity="1.0"
     bordercolor="#666666"
     pagecolor="#ffffff"
     id="base"
     showgrid="false"
     inkscape:zoom="1.4142136"
     inkscape:cx="470.73381"
     inkscape:cy="418.19599"
     inkscape:window-x="41"
     inkscape:window-y="0"
     inkscape:current-layer="svg3951"
     showguides="true"
     inkscape:guide-bbox="true"
     inkscape:window-maximized="0" />
  <defs
     id="defs3953">
    <marker
       inkscape:stockid="TriangleOutM"
       orient="auto"
       refY="0.0"
       refX="0.0"
       id="TriangleOutM"
       style="overflow:visible">
      <path
         id="path5448"
         d="M 5.77,0.0 L -2.88,5.0 L -2.88,-5.0 L 5.77,0.0 z "
         style="fill-rule:evenodd;stroke:#000000;stroke-width:1.0pt;marker-start:none"
         transform="scale(0.4)" />
    </marker>
    <marker
       inkscape:stockid="TriangleOutL"
       orient="auto"
       refY="0.0"
       refX="0.0"
       id="TriangleOutL"
       style="overflow:visible">
      <path
         id="path5445"
         d="M 5.77,0.0 L -2.88,5.0 L -2.88,-5.0 L 5.77,0.0 z "
         style="fill-rule:evenodd;stroke:#000000;stroke-width:1.0pt;marker-start:none"
         transform="scale(0.8)" />
    </marker>
    <marker
       inkscape:stockid="Scissors"
       orient="auto"
       refY="0.0"
       refX="0.0"
       id="Scissors"
       style="overflow:visible">
      <path
         id="schere"
         style="marker-start:none"
         d="M 9.0898857,-3.6061018 C 8.1198849,-4.7769976 6.3697607,-4.7358294 5.0623558,-4.2327734 L -3.1500488,-1.1548705 C -5.5383421,-2.4615840 -7.8983361,-2.0874077 -7.8983361,-2.7236578 C -7.8983361,-3.2209742 -7.4416699,-3.1119800 -7.5100293,-4.4068519 C -7.5756648,-5.6501286 -8.8736064,-6.5699315 -10.100428,-6.4884954 C -11.327699,-6.4958500 -12.599867,-5.5553341 -12.610769,-4.2584343 C -12.702194,-2.9520479 -11.603560,-1.7387447 -10.304005,-1.6532027 C -8.7816644,-1.4265411 -6.0857470,-2.3487593 -4.8210600,-0.082342643 C -5.7633447,1.6559151 -7.4350844,1.6607341 -8.9465707,1.5737277 C -10.201445,1.5014928 -11.708664,1.8611256 -12.307219,3.0945882 C -12.885586,4.2766744 -12.318421,5.9591904 -10.990470,6.3210002 C -9.6502788,6.8128279 -7.8098011,6.1912892 -7.4910978,4.6502760 C -7.2454393,3.4624530 -8.0864637,2.9043186 -7.7636052,2.4731223 C -7.5199917,2.1477623 -5.9728246,2.3362771 -3.2164999,1.0982979 L 5.6763468,4.2330688 C 6.8000164,4.5467672 8.1730685,4.5362646 9.1684433,3.4313614 L -0.051640930,-0.053722219 L 9.0898857,-3.6061018 z M -9.2179159,-5.5066058 C -7.9233569,-4.7838060 -8.0290767,-2.8230356 -9.3743431,-2.4433169 C -10.590861,-2.0196559 -12.145370,-3.2022863 -11.757521,-4.5207817 C -11.530373,-5.6026336 -10.104134,-6.0014137 -9.2179159,-5.5066058 z M -9.1616516,2.5107591 C -7.8108215,3.0096239 -8.0402087,5.2951947 -9.4138723,5.6023681 C -10.324932,5.9187072 -11.627422,5.4635705 -11.719569,4.3902287 C -11.897178,3.0851737 -10.363484,1.9060805 -9.1616516,2.5107591 z " />
    </marker>
    <marker
       inkscape:stockid="Torso"
       orient="auto"
       refY="0.0"
       refX="0.0"
       id="Torso"
       style="overflow:visible">
      <g
         id="g5515"
         transform="scale(0.7)">
        <path
           id="path5517"
           d="M -4.7792281,-3.2395420 C -2.4288541,-2.8736027 0.52103922,-1.3019943 0.25792722,0.38794346 C -0.0051877922,2.0778819 -2.2126741,2.6176539 -4.5630471,2.2517169 C -6.9134221,1.8857769 -8.5210350,0.75201414 -8.2579220,-0.93792336 C -7.9948090,-2.6278615 -7.1296041,-3.6054813 -4.7792281,-3.2395420 z "
           style="fill:none;fill-opacity:0.75000000;fill-rule:evenodd;stroke:#000000;stroke-width:1.2500000;marker-start:none;marker-mid:none;marker-end:none" />
        <path
           id="path5519"
           d="M 4.4598789,0.088665736 C -2.5564571,-4.3783320 5.2248769,-3.9061806 -0.84829578,-8.7197331"
           style="fill:none;fill-opacity:0.75000000;fill-rule:evenodd;stroke:#000000;stroke-width:1.0000000pt;marker-end:none" />
        <path
           id="path5521"
           d="M 4.9298719,0.057520736 C -1.3872731,1.7494689 1.8027579,5.4782079 -4.9448731,7.5462725"
           style="fill:none;fill-opacity:0.75000000;fill-rule:evenodd;stroke:#000000;stroke-width:1.0000000pt;marker-start:none;marker-end:none" />
        <rect
           id="rect5523"
           transform="matrix(0.527536,-0.849533,0.887668,0.460484,0,0)"
           y="-1.7408575"
           x="-10.391706"
           height="2.7608147"
           width="2.6366582"
           style="fill-rule:evenodd;stroke-width:1.0000000pt;marker-end:none" />
        <rect
           id="rect5525"
           transform="matrix(0.671205,-0.741272,0.790802,0.612072,0,0)"
           y="-7.9629307"
           x="4.9587269"
           height="2.8614161"
           width="2.7327356"
           style="fill-rule:evenodd;stroke-width:1.0000000pt;marker-end:none" />
        <path
           id="path5527"
           transform="matrix(0,-1.109517,1.109517,0,25.96648,19.71619)"
           d="m 16.779951,-28.685045 c 0,0.335412 -0.271905,0.607317 -0.607317,0.607317 -0.335412,0 -0.607317,-0.271905 -0.607317,-0.607317 0,-0.335412 0.271905,-0.607318 0.607317,-0.607318 0.335412,0 0.607317,0.271906 0.607317,0.607318 z"
           sodipodi:ry="0.60731727"
           sodipodi:rx="0.60731727"
           sodipodi:cy="-28.685045"
           sodipodi:cx="16.172634"
           style="fill:#ff0000;fill-opacity:0.75000000;fill-rule:evenodd;stroke:#000000;stroke-width:1.0000000pt;marker-start:none;marker-end:none"
           sodipodi:type="arc" />
        <path
           id="path5529"
           transform="matrix(0,-1.109517,1.109517,0,26.82450,16.99126)"
           d="m 16.779951,-28.685045 c 0,0.335412 -0.271905,0.607317 -0.607317,0.607317 -0.335412,0 -0.607317,-0.271905 -0.607317,-0.607317 0,-0.335412 0.271905,-0.607318 0.607317,-0.607318 0.335412,0 0.607317,0.271906 0.607317,0.607318 z"
           sodipodi:ry="0.60731727"
           sodipodi:rx="0.60731727"
           sodipodi:cy="-28.685045"
           sodipodi:cx="16.172634"
           style="fill:#ff0000;fill-opacity:0.75000000;fill-rule:evenodd;stroke:#000000;stroke-width:1.0000000pt;marker-start:none;marker-end:none"
           sodipodi:type="arc" />
      </g>
    </marker>
    <marker
       inkscape:stockid="Arrow1Mend"
       orient="auto"
       refY="0.0"
       refX="0.0"
       id="Arrow1Mend"
       style="overflow:visible;">
      <path
         id="path5311"
         d="M 0.0,0.0 L 5.0,-5.0 L -12.5,0.0 L 5.0,5.0 L 0.0,0.0 z "
         style="fill-rule:evenodd;stroke:#000000;stroke-width:1.0pt;marker-start:none;"
         transform="scale(0.4) rotate(180) translate(10,0)" />
    </marker>
    <marker
       inkscape:stockid="Arrow1Lend"
       orient="auto"
       refY="0.0"
       refX="0.0"
       id="Arrow1Lend"
       style="overflow:visible;">
      <path
         id="path5305"
         d="M 0.0,0.0 L 5.0,-5.0 L -12.5,0.0 L 5.0,5.0 L 0.0,0.0 z "
         style="fill-rule:evenodd;stroke:#000000;stroke-width:1.0pt;marker-start:none;"
         transform="scale(0.8) rotate(180) translate(12.5,0)" />
    </marker>
    <inkscape:perspective
       sodipodi:type="inkscape:persp3d"
       inkscape:vp_x="0 : 372.04724 : 1"
       inkscape:vp_y="0 : 1000 : 0"
       inkscape:vp_z="1052.3622 : 372.04724 : 1"
       inkscape:persp3d-origin="526.18109 : 248.03149 : 1"
       id="perspective2699" />
  </defs>
  <path
     d="m 336.82776,560.90414 0,-135.20945 135.20945,0 0,135.20945 -135.20945,0 z"
     id="path5125"
     style="fill:#e5ffd5;stroke:#000000;stroke-width:5;stroke-linecap:butt;stroke-linejoin:miter;stroke-miterlimit:4;stroke-opacity:1;stroke-dasharray:none;stroke-dashoffset:0" />
  <path
     d="m 201.61832,560.90414 0,-135.20945 135.20945,0 0,135.20945 -135.20945,0 z"
     id="path5109"
     style="fill:#ccffaa;stroke:#000000;stroke-width:5;stroke-linecap:butt;stroke-linejoin:miter;stroke-miterlimit:4;stroke-opacity:1;stroke-dasharray:none;stroke-dashoffset:0" />
  <path
     d="m 66.408886,560.90414 0,-135.20945 135.209454,0 0,135.20945 -135.209454,0 z"
     id="path5093"
     style="fill:#b3ff80;stroke:#000000;stroke-width:5;stroke-linecap:butt;stroke-linejoin:miter;stroke-miterlimit:4;stroke-opacity:1;stroke-dasharray:none;stroke-dashoffset:0" />
  <path
     d="m 336.82776,425.6947 0,-135.20945 135.20945,0 0,135.20945 -135.20945,0 z"
     id="path5207"
     style="fill:#99ff55;stroke:#000000;stroke-width:5;stroke-linecap:butt;stroke-linejoin:miter;stroke-miterlimit:4;stroke-opacity:1;stroke-dasharray:none;stroke-dashoffset:0" />
  <path
     d="m 201.61832,425.6947 0,-135.20945 135.20945,0 0,135.20945 -135.20945,0 z"
     id="path5191"
     style="fill:#7fff2a;stroke:#000000;stroke-width:5;stroke-linecap:butt;stroke-linejoin:miter;stroke-miterlimit:4;stroke-opacity:1;stroke-dasharray:none;stroke-dashoffset:0" />
  <path
     d="m 66.408886,425.6947 0,-135.20945 135.209454,0 0,135.20945 -135.209454,0 z"
     id="path5175"
     style="fill:#66ff00;stroke:#000000;stroke-width:5;stroke-linecap:butt;stroke-linejoin:miter;stroke-miterlimit:4;stroke-opacity:1;stroke-dasharray:none;stroke-dashoffset:0" />
  <path
     d="m 336.82776,290.48525 0,-135.20945 135.20945,0 0,135.20945 -135.20945,0 z"
     id="path5289"
     style="fill:#55d400;stroke:#000000;stroke-width:5;stroke-linecap:butt;stroke-linejoin:miter;stroke-miterlimit:4;stroke-opacity:1;stroke-dasharray:none;stroke-dashoffset:0" />
  <path
     d="m 201.61832,290.48525 0,-135.20945 135.20945,0 0,135.20945 -135.20945,0 z"
     id="path5273"
     style="fill:#44aa00;stroke:#000000;stroke-width:5;stroke-linecap:butt;stroke-linejoin:miter;stroke-miterlimit:4;stroke-opacity:1;stroke-dasharray:none;stroke-dashoffset:0" />
  <path
     d="m 66.408886,290.48525 0,-135.20945 135.209454,0 0,135.20945 -135.209454,0 z"
     id="path5257"
     style="fill:#338000;stroke:#000000;stroke-width:5;stroke-linecap:butt;stroke-linejoin:miter;stroke-miterlimit:4;stroke-opacity:1;stroke-dasharray:none;stroke-dashoffset:0" />
  <path
     d="m 66.408886,560.90414 0,-135.20945 135.209454,0 0,135.20945 -135.209454,0 z"
     id="path5083"
     style="fill:none;stroke:#000000;stroke-width:5;stroke-linecap:butt;stroke-linejoin:miter;stroke-miterlimit:4;stroke-opacity:1;stroke-dasharray:none;stroke-dashoffset:0" />
  <path
     d="m 66.408886,560.90414 0,-135.20945 135.209454,0 0,135.20945 -135.209454,0 z"
     id="path5085"
     style="fill:none;stroke:#000000;stroke-width:5;stroke-linecap:butt;stroke-linejoin:miter;stroke-miterlimit:4;stroke-opacity:1;stroke-dasharray:none;stroke-dashoffset:0" />
  <text
     x="134.67381"
     y="506.42422"
     id="text5087"
     xml:space="preserve"
     style="font-size:36.05585098px;font-style:normal;font-weight:normal;text-align:center;text-anchor:middle;fill:#000000;fill-opacity:1;stroke:none;font-family:Bitstream Vera Sans"><tspan
       x="134.67381"
       y="506.42422"
       id="tspan5089">C<tspan
   id="tspan5091"
   style="font-size:18.02792549px">2,0</tspan></tspan></text>
  <path
     d="m 201.61832,560.90414 0,-135.20945 135.20945,0 0,135.20945 -135.20945,0 z"
     id="path5099"
     style="fill:none;stroke:#000000;stroke-width:5;stroke-linecap:butt;stroke-linejoin:miter;stroke-miterlimit:4;stroke-opacity:1;stroke-dasharray:none;stroke-dashoffset:0" />
  <path
     d="m 201.61832,560.90414 0,-135.20945 135.20945,0 0,135.20945 -135.20945,0 z"
     id="path5101"
     style="fill:none;stroke:#000000;stroke-width:5;stroke-linecap:butt;stroke-linejoin:miter;stroke-miterlimit:4;stroke-opacity:1;stroke-dasharray:none;stroke-dashoffset:0" />
  <text
     x="269.88324"
     y="506.42422"
     id="text5103"
     xml:space="preserve"
     style="font-size:36.05585098px;font-style:normal;font-weight:normal;text-align:center;text-anchor:middle;fill:#000000;fill-opacity:1;stroke:none;font-family:Bitstream Vera Sans"><tspan
       x="269.88324"
       y="506.42422"
       id="tspan5105">C<tspan
   id="tspan5107"
   style="font-size:18.02792549px">2,1</tspan></tspan></text>
  <path
     d="m 336.82776,560.90414 0,-135.20945 135.20945,0 0,135.20945 -135.20945,0 z"
     id="path5115"
     style="fill:none;stroke:#000000;stroke-width:5;stroke-linecap:butt;stroke-linejoin:miter;stroke-miterlimit:4;stroke-opacity:1;stroke-dasharray:none;stroke-dashoffset:0" />
  <path
     d="m 336.82776,560.90414 0,-135.20945 135.20945,0 0,135.20945 -135.20945,0 z"
     id="path5117"
     style="fill:none;stroke:#000000;stroke-width:5;stroke-linecap:butt;stroke-linejoin:miter;stroke-miterlimit:4;stroke-opacity:1;stroke-dasharray:none;stroke-dashoffset:0" />
  <text
     x="405.09268"
     y="506.42422"
     id="text5119"
     xml:space="preserve"
     style="font-size:36.05585098px;font-style:normal;font-weight:normal;text-align:center;text-anchor:middle;fill:#000000;fill-opacity:1;stroke:none;font-family:Bitstream Vera Sans"><tspan
       x="405.09268"
       y="506.42422"
       id="tspan5121">C<tspan
   id="tspan5123"
   style="font-size:18.02792549px">2,2</tspan></tspan></text>
  <path
     d="m 66.408886,425.6947 0,-135.20945 135.209454,0 0,135.20945 -135.209454,0 z"
     id="path5165"
     style="fill:none;stroke:#000000;stroke-width:5;stroke-linecap:butt;stroke-linejoin:miter;stroke-miterlimit:4;stroke-opacity:1;stroke-dasharray:none;stroke-dashoffset:0" />
  <path
     d="m 66.408886,425.6947 0,-135.20945 135.209454,0 0,135.20945 -135.209454,0 z"
     id="path5167"
     style="fill:none;stroke:#000000;stroke-width:5;stroke-linecap:butt;stroke-linejoin:miter;stroke-miterlimit:4;stroke-opacity:1;stroke-dasharray:none;stroke-dashoffset:0" />
  <text
     x="134.67381"
     y="371.21478"
     id="text5169"
     xml:space="preserve"
     style="font-size:36.05585098px;font-style:normal;font-weight:normal;text-align:center;text-anchor:middle;fill:#000000;fill-opacity:1;stroke:none;font-family:Bitstream Vera Sans"><tspan
       x="134.67381"
       y="371.21478"
       id="tspan5171">C<tspan
   id="tspan5173"
   style="font-size:18.02792549px">1,0</tspan></tspan></text>
  <path
     d="m 201.61832,425.6947 0,-135.20945 135.20945,0 0,135.20945 -135.20945,0 z"
     id="path5181"
     style="fill:none;stroke:#000000;stroke-width:5;stroke-linecap:butt;stroke-linejoin:miter;stroke-miterlimit:4;stroke-opacity:1;stroke-dasharray:none;stroke-dashoffset:0" />
  <path
     d="m 201.61832,425.6947 0,-135.20945 135.20945,0 0,135.20945 -135.20945,0 z"
     id="path5183"
     style="fill:none;stroke:#000000;stroke-width:5;stroke-linecap:butt;stroke-linejoin:miter;stroke-miterlimit:4;stroke-opacity:1;stroke-dasharray:none;stroke-dashoffset:0" />
  <text
     x="269.88324"
     y="371.21478"
     id="text5185"
     xml:space="preserve"
     style="font-size:36.05585098px;font-style:normal;font-weight:normal;text-align:center;text-anchor:middle;fill:#000000;fill-opacity:1;stroke:none;font-family:Bitstream Vera Sans"><tspan
       x="269.88324"
       y="371.21478"
       id="tspan5187">C<tspan
   id="tspan5189"
   style="font-size:18.02792549px">1,1</tspan></tspan></text>
  <path
     d="m 336.82776,425.6947 0,-135.20945 135.20945,0 0,135.20945 -135.20945,0 z"
     id="path5197"
     style="fill:none;stroke:#000000;stroke-width:5;stroke-linecap:butt;stroke-linejoin:miter;stroke-miterlimit:4;stroke-opacity:1;stroke-dasharray:none;stroke-dashoffset:0" />
  <path
     d="m 336.82776,425.6947 0,-135.20945 135.20945,0 0,135.20945 -135.20945,0 z"
     id="path5199"
     style="fill:none;stroke:#000000;stroke-width:5;stroke-linecap:butt;stroke-linejoin:miter;stroke-miterlimit:4;stroke-opacity:1;stroke-dasharray:none;stroke-dashoffset:0" />
  <text
     x="405.09268"
     y="371.21478"
     id="text5201"
     xml:space="preserve"
     style="font-size:36.05585098px;font-style:normal;font-weight:normal;text-align:center;text-anchor:middle;fill:#000000;fill-opacity:1;stroke:none;font-family:Bitstream Vera Sans"><tspan
       x="405.09268"
       y="371.21478"
       id="tspan5203">C<tspan
   id="tspan5205"
   style="font-size:18.02792549px">1,2</tspan></tspan></text>
  <path
     d="m 66.408886,290.48525 0,-135.20945 135.209454,0 0,135.20945 -135.209454,0 z"
     id="path5247"
     style="fill:none;stroke:#000000;stroke-width:5;stroke-linecap:butt;stroke-linejoin:miter;stroke-miterlimit:4;stroke-opacity:1;stroke-dasharray:none;stroke-dashoffset:0" />
  <path
     d="m 66.408886,290.48525 0,-135.20945 135.209454,0 0,135.20945 -135.209454,0 z"
     id="path5249"
     style="fill:none;stroke:#000000;stroke-width:5;stroke-linecap:butt;stroke-linejoin:miter;stroke-miterlimit:4;stroke-opacity:1;stroke-dasharray:none;stroke-dashoffset:0" />
  <text
     x="134.67381"
     y="236.00534"
     id="text5251"
     xml:space="preserve"
     style="font-size:36.05585098px;font-style:normal;font-weight:normal;text-align:center;text-anchor:middle;fill:#000000;fill-opacity:1;stroke:none;font-family:Bitstream Vera Sans"><tspan
       x="134.67381"
       y="236.00534"
       id="tspan5743">C<tspan
   id="tspan5745"
   style="font-size:18.02792549px">0,0</tspan></tspan></text>
  <path
     d="m 201.61832,290.48525 0,-135.20945 135.20945,0 0,135.20945 -135.20945,0 z"
     id="path5263"
     style="fill:none;stroke:#000000;stroke-width:5;stroke-linecap:butt;stroke-linejoin:miter;stroke-miterlimit:4;stroke-opacity:1;stroke-dasharray:none;stroke-dashoffset:0" />
  <path
     d="m 201.61832,290.48525 0,-135.20945 135.20945,0 0,135.20945 -135.20945,0 z"
     id="path5265"
     style="fill:none;stroke:#000000;stroke-width:5;stroke-linecap:butt;stroke-linejoin:miter;stroke-miterlimit:4;stroke-opacity:1;stroke-dasharray:none;stroke-dashoffset:0" />
  <text
     x="269.88324"
     y="236.00534"
     id="text5267"
     xml:space="preserve"
     style="font-size:36.05585098px;font-style:normal;font-weight:normal;text-align:center;text-anchor:middle;fill:#000000;fill-opacity:1;stroke:none;font-family:Bitstream Vera Sans"><tspan
       x="269.88324"
       y="236.00534"
       id="tspan5269">C<tspan
   id="tspan5271"
   style="font-size:18.02792549px">0,1</tspan></tspan></text>
  <path
     d="m 336.82776,290.48525 0,-135.20945 135.20945,0 0,135.20945 -135.20945,0 z"
     id="path5279"
     style="fill:none;stroke:#000000;stroke-width:5;stroke-linecap:butt;stroke-linejoin:miter;stroke-miterlimit:4;stroke-opacity:1;stroke-dasharray:none;stroke-dashoffset:0" />
  <path
     d="m 336.82776,290.48525 0,-135.20945 135.20945,0 0,135.20945 -135.20945,0 z"
     id="path5281"
     style="fill:none;stroke:#000000;stroke-width:5;stroke-linecap:butt;stroke-linejoin:miter;stroke-miterlimit:4;stroke-opacity:1;stroke-dasharray:none;stroke-dashoffset:0" />
  <text
     x="405.09268"
     y="236.00534"
     id="text5283"
     xml:space="preserve"
     style="font-size:36.05585098px;font-style:normal;font-weight:normal;text-align:center;text-anchor:middle;fill:#000000;fill-opacity:1;stroke:none;font-family:Bitstream Vera Sans"><tspan
       x="405.09268"
       y="236.00534"
       id="tspan5285">C<tspan
   id="tspan5287"
   style="font-size:18.02792549px">0,2</tspan></tspan></text>
  <path
     style="fill:none;stroke:#000000;stroke-width:3.75;stroke-linecap:butt;stroke-linejoin:miter;stroke-miterlimit:4;stroke-opacity:1;stroke-dasharray:none"
     d="M 689.52165,376.66446 818.2347,505.37753"
     id="path2982"
     inkscape:connector-type="polyline" />
  <path
     style="fill:none;stroke:#000000;stroke-width:3.75000024;stroke-linecap:butt;stroke-linejoin:miter;stroke-miterlimit:4;stroke-opacity:1;stroke-dasharray:none"
     d="M 950.99338,378.04377 842.28028,486.75685"
     id="path2980"
     inkscape:connector-type="polyline" />
  <path
     style="fill:none;stroke:#000000;stroke-width:3.74999976;stroke-linecap:butt;stroke-linejoin:miter;stroke-miterlimit:4;stroke-opacity:1;stroke-dasharray:none"
     d="M 676.41822,352.61891 800.3037,228.73344"
     id="path2976"
     inkscape:connector-type="polyline" />
  <path
     style="fill:none;stroke:#000000;stroke-width:3.74999976;stroke-linecap:butt;stroke-linejoin:miter;stroke-miterlimit:4;stroke-opacity:1;stroke-dasharray:none"
     d="M 846.41824,233.56102 953.06238,340.20514"
     id="path2978"
     inkscape:connector-type="polyline" />
  <path
     style="fill:#44aa00;fill-opacity:1;fill-rule:evenodd;stroke:#000000;stroke-width:3.75000000000000000;stroke-linecap:round;stroke-linejoin:round;stroke-miterlimit:4;stroke-opacity:1;stroke-dasharray:none;stroke-dashoffset:0"
     id="path3358"
     d="m 865.23291,208.08997 c 0,24.45833 -19.82739,44.28571 -44.28572,44.28571 -24.45832,0 -44.28571,-19.82738 -44.28571,-44.28571 0,-24.45833 19.82739,-44.28571 44.28571,-44.28571 24.45833,0 44.28572,19.82738 44.28572,44.28571 l 0,0 z" />
  <text
     style="font-size:40px;font-style:normal;font-weight:normal;text-align:center;text-anchor:middle;fill:#000000;fill-opacity:1;stroke:none;font-family:Bitstream Vera Sans"
     xml:space="preserve"
     id="text3360"
     y="222.65053"
     x="820.82025"><tspan
       id="tspan3362"
       y="222.65053"
       x="820.82025">C<tspan
   style="font-size:20px"
   id="tspan4445">0,1</tspan></tspan></text>
  <path
     style="fill:#66ff00;fill-opacity:1;fill-rule:evenodd;stroke:#000000;stroke-width:3.75000000000000000;stroke-linecap:round;stroke-linejoin:round;stroke-miterlimit:4;stroke-opacity:1;stroke-dasharray:none;stroke-dashoffset:0"
     id="path3430"
     d="m 715.23291,358.08997 c 0,24.45833 -19.82739,44.28571 -44.28572,44.28571 -24.45832,0 -44.28571,-19.82738 -44.28571,-44.28571 0,-24.45833 19.82739,-44.28571 44.28571,-44.28571 24.45833,0 44.28572,19.82738 44.28572,44.28571 l 0,0 z" />
  <text
     style="font-size:40px;font-style:normal;font-weight:normal;text-align:center;text-anchor:middle;fill:#000000;fill-opacity:1;stroke:none;font-family:Bitstream Vera Sans"
     xml:space="preserve"
     id="text3432"
     y="372.65051"
     x="670.82025"><tspan
       id="tspan3434"
       y="372.65051"
       x="670.82025">C<tspan
   style="font-size:20px"
   id="tspan4449">1,0</tspan></tspan></text>
  <path
     style="fill:#99ff55;fill-opacity:1;fill-rule:evenodd;stroke:#000000;stroke-width:3.75000000000000000;stroke-linecap:round;stroke-linejoin:round;stroke-miterlimit:4;stroke-opacity:1;stroke-dasharray:none;stroke-dashoffset:0"
     id="path3446"
     d="m 1015.2329,358.08997 c 0,24.45833 -19.82742,44.28571 -44.28572,44.28571 -24.4583,0 -44.2857,-19.82738 -44.2857,-44.28571 0,-24.45833 19.8274,-44.28571 44.2857,-44.28571 24.4583,0 44.28572,19.82738 44.28572,44.28571 l 0,0 z" />
  <text
     style="font-size:40px;font-style:normal;font-weight:normal;text-align:center;text-anchor:middle;fill:#000000;fill-opacity:1;stroke:none;font-family:Bitstream Vera Sans"
     xml:space="preserve"
     id="text3448"
     y="372.65051"
     x="970.82019"><tspan
       id="tspan3450"
       y="372.65051"
       x="970.82019">C<tspan
   style="font-size:20px"
   id="tspan4453">1,2</tspan></tspan></text>
  <path
     style="fill:#ccffaa;fill-opacity:1;fill-rule:evenodd;stroke:#000000;stroke-width:3.75000000000000000;stroke-linecap:round;stroke-linejoin:round;stroke-miterlimit:4;stroke-opacity:1;stroke-dasharray:none;stroke-dashoffset:0"
     id="path3464"
     d="m 865.23291,508.08997 c 0,24.45833 -19.82739,44.28571 -44.28572,44.28571 -24.45832,0 -44.28571,-19.82738 -44.28571,-44.28571 0,-24.45833 19.82739,-44.28571 44.28571,-44.28571 24.45833,0 44.28572,19.82738 44.28572,44.28571 l 0,0 z" />
  <text
     style="font-size:40px;font-style:normal;font-weight:normal;text-align:center;text-anchor:middle;fill:#000000;fill-opacity:1;stroke:none;font-family:Bitstream Vera Sans"
     xml:space="preserve"
     id="text3466"
     y="522.65051"
     x="820.82025"><tspan
       id="tspan3468"
       y="522.65051"
       x="820.82025">C<tspan
   style="font-size:20px"
   id="tspan4459">2,1</tspan></tspan></text>
  <path
     style="fill:none;stroke:#000000;stroke-width:3.75;stroke-linecap:butt;stroke-linejoin:miter;stroke-miterlimit:4;stroke-opacity:1;stroke-dasharray:none"
     d="m 670.94719,462.30426 0,-58.42858"
     id="path3594"
     inkscape:connector-type="polyline" />
  <path
     style="fill:none;stroke:#000000;stroke-width:3.75;stroke-linecap:butt;stroke-linejoin:miter;stroke-miterlimit:4;stroke-opacity:1;stroke-dasharray:none"
     d="m 670.94719,312.30426 0,-58.42858"
     id="path3596"
     inkscape:connector-type="polyline" />
  <path
     style="fill:none;stroke:#000000;stroke-width:3.75;stroke-linecap:butt;stroke-linejoin:miter;stroke-miterlimit:4;stroke-opacity:1;stroke-dasharray:none"
     d="m 716.73291,208.08997 58.42857,0"
     id="path3598"
     inkscape:connector-type="polyline" />
  <path
     style="fill:none;stroke:#000000;stroke-width:3.75;stroke-linecap:butt;stroke-linejoin:miter;stroke-miterlimit:4;stroke-opacity:1;stroke-dasharray:none"
     d="m 866.73291,208.08997 58.42857,0"
     id="path3600"
     inkscape:connector-type="polyline" />
  <path
     style="fill:none;stroke:#000000;stroke-width:3.75;stroke-linecap:butt;stroke-linejoin:miter;stroke-miterlimit:4;stroke-opacity:1;stroke-dasharray:none"
     d="m 970.94718,253.87568 0,58.42858"
     id="path3602"
     inkscape:connector-type="polyline" />
  <path
     style="fill:none;stroke:#000000;stroke-width:3.75;stroke-linecap:butt;stroke-linejoin:miter;stroke-miterlimit:4;stroke-opacity:1;stroke-dasharray:none"
     d="m 970.94718,403.87568 0,58.42858"
     id="path3604"
     inkscape:connector-type="polyline" />
  <path
     style="fill:none;stroke:#000000;stroke-width:3.75;stroke-linecap:butt;stroke-linejoin:miter;stroke-miterlimit:4;stroke-opacity:1;stroke-dasharray:none"
     d="m 925.16148,508.08997 -58.42857,0"
     id="path3606"
     inkscape:connector-type="polyline" />
  <path
     style="fill:none;stroke:#000000;stroke-width:3.75;stroke-linecap:butt;stroke-linejoin:miter;stroke-miterlimit:4;stroke-opacity:1;stroke-dasharray:none"
     d="m 775.16148,508.08997 -58.42857,0"
     id="path3608"
     inkscape:connector-type="polyline" />
  <path
     style="fill:none;stroke:#000000;stroke-width:3.75;stroke-linecap:butt;stroke-linejoin:miter;stroke-miterlimit:4;stroke-opacity:1;stroke-dasharray:none"
     d="m 716.73291,358.08997 58.42857,0"
     id="path3610"
     inkscape:connector-type="polyline" />
  <path
     style="fill:none;stroke:#000000;stroke-width:3.75;stroke-linecap:butt;stroke-linejoin:miter;stroke-miterlimit:4;stroke-opacity:1;stroke-dasharray:none"
     d="m 866.73291,358.08997 58.42857,0"
     id="path3612"
     inkscape:connector-type="polyline" />
  <path
     style="fill:none;stroke:#000000;stroke-width:3.75;stroke-linecap:butt;stroke-linejoin:miter;stroke-miterlimit:4;stroke-opacity:1;stroke-dasharray:none"
     d="m 820.94719,253.87568 0,58.42858"
     id="path3614"
     inkscape:connector-type="polyline" />
  <path
     style="fill:none;stroke:#000000;stroke-width:3.75;stroke-linecap:butt;stroke-linejoin:miter;stroke-miterlimit:4;stroke-opacity:1;stroke-dasharray:none"
     d="m 820.94719,403.87568 0,58.42858"
     id="path3616"
     inkscape:connector-type="polyline" />
  <path
     style="fill:none;stroke:#000000;stroke-width:3.75;stroke-linecap:butt;stroke-linejoin:miter;stroke-miterlimit:4;stroke-opacity:1;stroke-dasharray:none"
     d="M 687.71555,224.85833 821.58918,358.73199"
     id="path3618"
     inkscape:connector-type="polyline" />
  <path
     style="fill:none;stroke:#000000;stroke-width:3.75;stroke-linecap:butt;stroke-linejoin:miter;stroke-miterlimit:4;stroke-opacity:1;stroke-dasharray:none"
     d="M 833.84655,370.98935 950.30978,487.45261"
     id="path3620"
     inkscape:connector-type="polyline" />
  <path
     style="fill:none;stroke:#000000;stroke-width:3.75;stroke-linecap:butt;stroke-linejoin:miter;stroke-miterlimit:4;stroke-opacity:1;stroke-dasharray:none"
     d="M 670.30513,508.73199 806.11329,372.92384"
     id="path3622"
     inkscape:connector-type="polyline" />
  <path
     style="fill:none;stroke:#000000;stroke-width:3.75;stroke-linecap:butt;stroke-linejoin:miter;stroke-miterlimit:4;stroke-opacity:1;stroke-dasharray:none"
     d="M 833.84659,345.19057 958.04778,220.98935"
     id="path3624"
     inkscape:connector-type="polyline" />
  <path
     d="m 715.23291,508.08997 c 0,24.45833 -19.82739,44.28571 -44.28572,44.28571 -24.45832,0 -44.28571,-19.82738 -44.28571,-44.28571 0,-24.45833 19.82739,-44.28571 44.28571,-44.28571 24.45833,0 44.28572,19.82738 44.28572,44.28571 l 0,0 z"
     id="path3456"
     style="fill:#b3ff80;fill-opacity:1;fill-rule:evenodd;stroke:#000000;stroke-width:3.75000000000000000;stroke-linecap:round;stroke-linejoin:round;stroke-miterlimit:4;stroke-opacity:1;stroke-dasharray:none;stroke-dashoffset:0" />
  <text
     x="670.82025"
     y="522.65051"
     id="text3458"
     xml:space="preserve"
     style="font-size:40px;font-style:normal;font-weight:normal;text-align:center;text-anchor:middle;fill:#000000;fill-opacity:1;stroke:none;font-family:Bitstream Vera Sans"><tspan
       x="670.82025"
       y="522.65051"
       id="tspan3460">C<tspan
   style="font-size:20px"
   id="tspan4457">2,0</tspan><tspan
   style="font-size:2px"
   id="tspan4455">0,0</tspan></tspan></text>
  <path
     d="m 715.23291,208.08997 c 0,24.45833 -19.82739,44.28571 -44.28572,44.28571 -24.45832,0 -44.28571,-19.82738 -44.28571,-44.28571 0,-24.45833 19.82739,-44.28571 44.28571,-44.28571 24.45833,0 44.28572,19.82738 44.28572,44.28571 l 0,0 z"
     id="path2383"
     style="fill:#338000;fill-opacity:1;fill-rule:evenodd;stroke:#000000;stroke-width:3.75000000000000000;stroke-linecap:round;stroke-linejoin:round;stroke-miterlimit:4;stroke-opacity:1;stroke-dasharray:none;stroke-dashoffset:0" />
  <text
     x="670.82025"
     y="222.65053"
     id="text3155"
     xml:space="preserve"
     style="font-size:40px;font-style:normal;font-weight:normal;text-align:center;text-anchor:middle;fill:#000000;fill-opacity:1;stroke:none;font-family:Bitstream Vera Sans"><tspan
       x="670.82025"
       y="222.65053"
       id="tspan3157">C<tspan
   style="font-size:20px"
   id="tspan4443">0,0</tspan></tspan></text>
  <path
     d="m 1015.2329,208.08997 c 0,24.45833 -19.82742,44.28571 -44.28572,44.28571 -24.4583,0 -44.2857,-19.82738 -44.2857,-44.28571 0,-24.45833 19.8274,-44.28571 44.2857,-44.28571 24.4583,0 44.28572,19.82738 44.28572,44.28571 l 0,0 z"
     id="path3366"
     style="fill:#55d400;fill-opacity:1;fill-rule:evenodd;stroke:#000000;stroke-width:3.75000000000000000;stroke-linecap:round;stroke-linejoin:round;stroke-miterlimit:4;stroke-opacity:1;stroke-dasharray:none;stroke-dashoffset:0" />
  <text
     x="970.82019"
     y="222.65053"
     id="text3368"
     xml:space="preserve"
     style="font-size:40px;font-style:normal;font-weight:normal;text-align:center;text-anchor:middle;fill:#000000;fill-opacity:1;stroke:none;font-family:Bitstream Vera Sans"><tspan
       x="970.82019"
       y="222.65053"
       id="tspan3370">C<tspan
   style="font-size:20px"
   id="tspan4447">0,2</tspan></tspan></text>
  <path
     d="m 1015.2329,508.08997 c 0,24.45833 -19.82742,44.28571 -44.28572,44.28571 -24.4583,0 -44.2857,-19.82738 -44.2857,-44.28571 0,-24.45833 19.8274,-44.28571 44.2857,-44.28571 24.4583,0 44.28572,19.82738 44.28572,44.28571 l 0,0 z"
     id="path3472"
     style="fill:#e5ffd5;fill-opacity:1;fill-rule:evenodd;stroke:#000000;stroke-width:3.75000000000000000;stroke-linecap:round;stroke-linejoin:round;stroke-miterlimit:4;stroke-opacity:1;stroke-dasharray:none;stroke-dashoffset:0" />
  <text
     x="970.82019"
     y="522.65051"
     id="text3474"
     xml:space="preserve"
     style="font-size:40px;font-style:normal;font-weight:normal;text-align:center;text-anchor:middle;fill:#000000;fill-opacity:1;stroke:none;font-family:Bitstream Vera Sans"><tspan
       x="970.82019"
       y="522.65051"
       id="tspan3476">C<tspan
   style="font-size:20px"
   id="tspan4461">2,2</tspan></tspan></text>
  <path
     d="m 865.23291,358.08997 c 0,24.45833 -19.82739,44.28571 -44.28572,44.28571 -24.45832,0 -44.28571,-19.82738 -44.28571,-44.28571 0,-24.45833 19.82739,-44.28571 44.28571,-44.28571 24.45833,0 44.28572,19.82738 44.28572,44.28571 l 0,0 z"
     id="path3438"
     style="fill:#7fff2a;fill-opacity:1;fill-rule:evenodd;stroke:#000000;stroke-width:3.75000000000000000;stroke-linecap:round;stroke-linejoin:round;stroke-miterlimit:4;stroke-opacity:1;stroke-dasharray:none;stroke-dashoffset:0" />
  <text
     x="820.82025"
     y="372.65051"
     id="text3440"
     xml:space="preserve"
     style="font-size:40px;font-style:normal;font-weight:normal;text-align:center;text-anchor:middle;fill:#000000;fill-opacity:1;stroke:none;font-family:Bitstream Vera Sans"><tspan
       x="820.82025"
       y="372.65051"
       id="tspan3442">C<tspan
   style="font-size:20px"
   id="tspan4451">1,1</tspan></tspan></text>
  <flowRoot
     xml:space="preserve"
     id="flowRoot4559"
     style="fill:black;stroke:none;stroke-opacity:1;stroke-width:1px;stroke-linejoin:miter;stroke-linecap:butt;fill-opacity:1;font-family:Bitstream Vera Sans;font-style:normal;font-weight:normal;font-size:30"><flowRegion
       id="flowRegion4561"><rect
         id="rect4563"
         width="206.99036"
         height="212.79382"
         x="-446.86703"
         y="548.71106" /></flowRegion><flowPara
       id="flowPara4565" /></flowRoot>  <path
     style="fill:none;stroke:#000000;stroke-width:6.25;stroke-linecap:butt;stroke-linejoin:miter;stroke-miterlimit:4;stroke-opacity:1;stroke-dasharray:none;marker-end:url(#TriangleOutM)"
     d="m 490.80055,358.08997 101.22388,0"
     id="path5297" />
</svg>
